# Blender v2.78 (sub 0) OBJ File: 'estalagmite.blend'
# www.blender.org
mtllib estalagmite.mtl
o Cone
v 0.000000 -1.159569 -0.911098
v 0.000000 1.501416 -0.043386
v 0.644244 -1.159569 -0.644244
v 0.030678 1.501416 -0.030678
v 0.911098 -1.159569 0.000000
v 0.043386 1.501416 0.000000
v 0.644244 -1.159569 0.644244
v 0.030678 1.501416 0.030678
v -0.000000 -1.159569 0.911098
v -0.000000 1.501416 0.043386
v -0.644244 -1.159569 0.644244
v -0.030678 1.501416 0.030678
v -0.911098 -1.159569 -0.000000
v -0.043386 1.501416 -0.000000
v -0.644244 -1.159569 -0.644244
v -0.030678 1.501416 -0.030678
v -0.000000 1.186789 -0.089025
v 0.062950 1.186789 -0.062950
v 0.089025 1.186789 0.000000
v 0.062950 1.186789 0.062950
v -0.000000 1.186789 0.089025
v -0.062950 1.186789 0.062950
v -0.089025 1.186789 -0.000000
v -0.062950 1.186789 -0.062950
v 0.158380 0.680620 -0.158380
v 0.223983 0.680620 0.000000
v 0.158380 0.680620 0.158380
v -0.000000 0.680620 0.223983
v -0.158380 0.680620 0.158380
v -0.223983 0.680620 -0.000000
v -0.158380 0.680620 -0.158380
v -0.000000 0.680620 -0.223983
v 0.298453 -0.023913 -0.298453
v 0.422076 -0.023913 0.000000
v 0.298453 -0.023913 0.298453
v -0.000000 -0.023913 0.422076
v -0.298453 -0.023913 0.298452
v -0.422076 -0.023913 -0.000000
v -0.298453 -0.023913 -0.298453
v -0.000000 -0.023913 -0.422076
v 0.435986 -0.597378 -0.435986
v 0.616577 -0.597378 0.000000
v 0.435986 -0.597378 0.435986
v -0.000000 -0.597378 0.616577
v -0.435986 -0.597378 0.435986
v -0.616577 -0.597378 -0.000000
v -0.435986 -0.597378 -0.435986
v -0.000000 -0.597378 -0.616577
vn 0.3793 0.1328 -0.9157
vn 0.9157 0.1328 -0.3793
vn 0.9157 0.1328 0.3793
vn 0.3793 0.1328 0.9157
vn -0.3793 0.1328 0.9157
vn -0.9157 0.1328 0.3793
vn 0.0000 1.0000 0.0000
vn -0.9157 0.1328 -0.3793
vn -0.3793 0.1328 -0.9157
vn 0.0000 -1.0000 -0.0000
vn -0.3716 0.2392 -0.8971
vn -0.8971 0.2392 -0.3716
vn -0.8971 0.2392 0.3716
vn -0.3716 0.2392 0.8971
vn 0.3716 0.2392 0.8971
vn 0.8971 0.2392 0.3716
vn 0.8971 0.2392 -0.3716
vn 0.3716 0.2392 -0.8971
vn 0.3704 0.2514 -0.8942
vn 0.8942 0.2514 -0.3704
vn 0.8942 0.2514 0.3704
vn 0.3704 0.2514 0.8942
vn -0.3704 0.2514 0.8942
vn -0.8942 0.2514 0.3704
vn -0.8942 0.2514 -0.3704
vn -0.3704 0.2514 -0.8942
vn -0.3652 0.2990 -0.8816
vn -0.8816 0.2990 -0.3652
vn -0.8816 0.2990 0.3652
vn -0.3652 0.2990 0.8816
vn 0.3652 0.2990 0.8816
vn 0.8816 0.2990 0.3652
vn 0.8816 0.2990 -0.3652
vn 0.3652 0.2990 -0.8816
vn 0.3445 0.4357 -0.8316
vn 0.8316 0.4357 -0.3445
vn 0.8316 0.4357 0.3445
vn 0.3445 0.4357 0.8316
vn -0.3445 0.4357 0.8316
vn -0.8316 0.4357 0.3445
vn -0.8316 0.4357 -0.3445
vn -0.3445 0.4357 -0.8316
usemtl None
s off
f 17//1 2//1 4//1 18//1
f 18//2 4//2 6//2 19//2
f 19//3 6//3 8//3 20//3
f 20//4 8//4 10//4 21//4
f 21//5 10//5 12//5 22//5
f 22//6 12//6 14//6 23//6
f 4//7 2//7 16//7 14//7 12//7 10//7 8//7 6//7
f 23//8 14//8 16//8 24//8
f 24//9 16//9 2//9 17//9
f 1//10 3//10 5//10 7//10 9//10 11//10 13//10 15//10
f 31//11 24//11 17//11 32//11
f 30//12 23//12 24//12 31//12
f 29//13 22//13 23//13 30//13
f 28//14 21//14 22//14 29//14
f 27//15 20//15 21//15 28//15
f 26//16 19//16 20//16 27//16
f 25//17 18//17 19//17 26//17
f 32//18 17//18 18//18 25//18
f 40//19 32//19 25//19 33//19
f 33//20 25//20 26//20 34//20
f 34//21 26//21 27//21 35//21
f 35//22 27//22 28//22 36//22
f 36//23 28//23 29//23 37//23
f 37//24 29//24 30//24 38//24
f 38//25 30//25 31//25 39//25
f 39//26 31//26 32//26 40//26
f 47//27 39//27 40//27 48//27
f 46//28 38//28 39//28 47//28
f 45//29 37//29 38//29 46//29
f 44//30 36//30 37//30 45//30
f 43//31 35//31 36//31 44//31
f 42//32 34//32 35//32 43//32
f 41//33 33//33 34//33 42//33
f 48//34 40//34 33//34 41//34
f 1//35 48//35 41//35 3//35
f 3//36 41//36 42//36 5//36
f 5//37 42//37 43//37 7//37
f 7//38 43//38 44//38 9//38
f 9//39 44//39 45//39 11//39
f 11//40 45//40 46//40 13//40
f 13//41 46//41 47//41 15//41
f 15//42 47//42 48//42 1//42
